<?xml version="1.0" encoding="utf-8"?>
<svg version="1.1" xmlns:xlink="http://www.w3.org/1999/xlink" width="10px" height="14px" xmlns="http://www.w3.org/2000/svg">
  <defs>
    <mask fill="white" id="clip184">
      <path d="M 5.019112449999994 11.7982588  L 8.549734 8.245713039999998  L 9.256840799999992 8.952819820000002  L 5.380461429999997 12.854618900000006  C 5.228447470000006 13.007629699999995  5.001787300000004 13.0413705  4.816858159999995 12.955461100000008  C 4.762350609999999 12.932172300000005  4.711292209999996 12.898266500000005  4.666452149999998 12.854193300000006  L 0.7407480899999968 8.995624539999994  L 1.4478548700000005 8.288517760000005  L 5.019112449999994 11.7982588  Z M 4.811880489999993 1.0462376100000057  L 4.8298048300000005 1.038748659999996  C 5.0122719099999955 0.9602605099999978  5.23197682 0.9959228299999977  5.380461429999997 1.1453811500000057  L 9.256840799999992 5.047180179999998  L 8.549734 5.754286960000002  L 5.019112449999994 2.2002587900000066  L 1.4478548700000005 5.711482239999995  L 0.7407480899999968 5.004375460000006  L 4.666452149999998 1.145806719999996  C 4.709949690000002 1.1030530499999998  4.759298799999996 1.0698671100000041  4.811880489999993 1.0462376100000057  Z " fill-rule="evenodd" />
    </mask>
  </defs>
  <g transform="matrix(1 0 0 1 -119 -202 )">
    <path d="M 5.019112449999994 11.7982588  L 8.549734 8.245713039999998  L 9.256840799999992 8.952819820000002  L 5.380461429999997 12.854618900000006  C 5.228447470000006 13.007629699999995  5.001787300000004 13.0413705  4.816858159999995 12.955461100000008  C 4.762350609999999 12.932172300000005  4.711292209999996 12.898266500000005  4.666452149999998 12.854193300000006  L 0.7407480899999968 8.995624539999994  L 1.4478548700000005 8.288517760000005  L 5.019112449999994 11.7982588  Z M 4.811880489999993 1.0462376100000057  L 4.8298048300000005 1.038748659999996  C 5.0122719099999955 0.9602605099999978  5.23197682 0.9959228299999977  5.380461429999997 1.1453811500000057  L 9.256840799999992 5.047180179999998  L 8.549734 5.754286960000002  L 5.019112449999994 2.2002587900000066  L 1.4478548700000005 5.711482239999995  L 0.7407480899999968 5.004375460000006  L 4.666452149999998 1.145806719999996  C 4.709949690000002 1.1030530499999998  4.759298799999996 1.0698671100000041  4.811880489999993 1.0462376100000057  Z " fill-rule="nonzero" fill="#333333" stroke="none" fill-opacity="0.2980392156862745" transform="matrix(1 0 0 1 119 202 )" />
    <path d="M 5.019112449999994 11.7982588  L 8.549734 8.245713039999998  L 9.256840799999992 8.952819820000002  L 5.380461429999997 12.854618900000006  C 5.228447470000006 13.007629699999995  5.001787300000004 13.0413705  4.816858159999995 12.955461100000008  C 4.762350609999999 12.932172300000005  4.711292209999996 12.898266500000005  4.666452149999998 12.854193300000006  L 0.7407480899999968 8.995624539999994  L 1.4478548700000005 8.288517760000005  L 5.019112449999994 11.7982588  Z " stroke-width="2" stroke="#7f7f7f" fill="none" transform="matrix(1 0 0 1 119 202 )" mask="url(#clip184)" />
    <path d="M 4.811880489999993 1.0462376100000057  L 4.8298048300000005 1.038748659999996  C 5.0122719099999955 0.9602605099999978  5.23197682 0.9959228299999977  5.380461429999997 1.1453811500000057  L 9.256840799999992 5.047180179999998  L 8.549734 5.754286960000002  L 5.019112449999994 2.2002587900000066  L 1.4478548700000005 5.711482239999995  L 0.7407480899999968 5.004375460000006  L 4.666452149999998 1.145806719999996  C 4.709949690000002 1.1030530499999998  4.759298799999996 1.0698671100000041  4.811880489999993 1.0462376100000057  Z " stroke-width="2" stroke="#7f7f7f" fill="none" transform="matrix(1 0 0 1 119 202 )" mask="url(#clip184)" />
  </g>
</svg>