<?xml version="1.0" encoding="utf-8"?>
<svg version="1.1" xmlns:xlink="http://www.w3.org/1999/xlink" width="62px" height="32px" xmlns="http://www.w3.org/2000/svg">
  <defs>
    <mask fill="white" id="clip341">
      <path d="M 0 29.5  C 0 29.5  0 2.5  0 2.5  C 0 1.1193000000000097  1.0840312499999905 0  2.421875 0  C 2.421875 0  62 0  62 0  C 62 0  62 32  62 32  C 62 32  2.421875 32  2.421875 32  C 1.0840312499999905 32  0 30.880700000000047  0 29.5  Z " fill-rule="evenodd" />
    </mask>
  </defs>
  <g transform="matrix(1 0 0 1 -1505 -646 )">
    <path d="M 0 29.5  C 0 29.5  0 2.5  0 2.5  C 0 1.1193000000000097  1.0840312499999905 0  2.421875 0  C 2.421875 0  62 0  62 0  C 62 0  62 32  62 32  C 62 32  2.421875 32  2.421875 32  C 1.0840312499999905 32  0 30.880700000000047  0 29.5  Z " fill-rule="nonzero" fill="#ffffff" stroke="none" transform="matrix(1 0 0 1 1505 646 )" />
    <path d="M 0 29.5  C 0 29.5  0 2.5  0 2.5  C 0 1.1193000000000097  1.0840312499999905 0  2.421875 0  C 2.421875 0  62 0  62 0  C 62 0  62 32  62 32  C 62 32  2.421875 32  2.421875 32  C 1.0840312499999905 32  0 30.880700000000047  0 29.5  Z " stroke-width="2" stroke="#dcdcdc" fill="none" transform="matrix(1 0 0 1 1505 646 )" mask="url(#clip341)" />
  </g>
</svg>