<?xml version="1.0" encoding="utf-8"?>
<svg version="1.1" xmlns:xlink="http://www.w3.org/1999/xlink" width="172px" height="52px" xmlns="http://www.w3.org/2000/svg">
  <defs>
    <filter x="194px" y="63px" width="172px" height="52px" filterUnits="userSpaceOnUse" id="filter190">
      <feOffset dx="2" dy="3" in="SourceAlpha" result="shadowOffsetInner" />
      <feGaussianBlur stdDeviation="2" in="shadowOffsetInner" result="shadowGaussian" />
      <feComposite in2="shadowGaussian" operator="atop" in="SourceAlpha" result="shadowComposite" />
      <feColorMatrix type="matrix" values="0 0 0 0 0.8431372549019608  0 0 0 0 0.8431372549019608  0 0 0 0 0.8431372549019608  0 0 0 0.2980392156862745 0  " in="shadowComposite" />
    </filter>
    <g id="widget191">
      <path d="M 196.5 93.3263888888888  C 196.5 93.3263888888888  196.5 67  196.5 67  C 196.5 65.61928812542301  197.61928812542303 64.5  199 64.5  C 199 64.5  357 64.5  357 64.5  C 358.38071187457695 64.5  359.5 65.61928812542301  359.5 67  C 359.5 67  359.5 93.3263888888888  359.5 93.3263888888888  C 359.5 94.70710076346577  358.38071187457695 95.8263888888888  357 95.8263888888888  C 357 95.8263888888888  229.18234395633567 95.8263888888888  229.18234395633567 95.8263888888888  C 229.18234395633567 95.8263888888888  218.82238998890926 107.09365510792611  218.82238998890926 107.09365510792611  C 218.82238998890926 107.09365510792611  209.63936133775275 95.8263888888888  209.63936133775275 95.8263888888888  C 209.63936133775275 95.8263888888888  199 95.8263888888888  199 95.8263888888888  C 197.61928812542303 95.8263888888888  196.5 94.70710076346577  196.5 93.3263888888888  Z " fill-rule="nonzero" fill="#ffffff" stroke="none" />
      <path d="M 196 93.3263888888888  C 196 93.3263888888888  196 67  196 67  C 196 65.34314575050762  197.34314575050763 64  199 64  C 199 64  357 64  357 64  C 358.65685424949237 64  360 65.34314575050762  360 67  C 360 67  360 93.3263888888888  360 93.3263888888888  C 360 94.98324313838117  358.65685424949237 96.3263888888888  357 96.3263888888888  C 357 96.3263888888888  229.40184049079977 96.3263888888888  229.40184049079977 96.3263888888888  C 229.40184049079977 96.3263888888888  218.79961649089165 107.85714285714286  218.79961649089165 107.85714285714286  C 218.79961649089165 107.85714285714286  209.4018404907998 96.3263888888888  209.4018404907998 96.3263888888888  C 209.4018404907998 96.3263888888888  199 96.3263888888888  199 96.3263888888888  C 197.34314575050763 96.3263888888888  196 94.98324313838117  196 93.3263888888888  Z M 197 93.3263888888888  C 197 94.43095838855038  197.89543050033842 95.3263888888888  199 95.3263888888888  C 199 95.3263888888888  209.8768821847056 95.3263888888888  209.8768821847056 95.3263888888888  C 209.8768821847056 95.3263888888888  218.84516348692688 106.33016735870935  218.84516348692688 106.33016735870935  C 218.84516348692688 106.33016735870935  228.96284742187154 95.3263888888888  228.96284742187154 95.3263888888888  C 228.96284742187154 95.3263888888888  357 95.3263888888888  357 95.3263888888888  C 358.1045694996616 95.3263888888888  359 94.43095838855038  359 93.3263888888888  C 359 93.3263888888888  359 67  359 67  C 359 65.8954305003384  358.1045694996616 65  357 65  C 357 65  199 65  199 65  C 197.89543050033842 65  197 65.8954305003384  197 67  C 197 67  197 93.3263888888888  197 93.3263888888888  Z " fill-rule="nonzero" fill="#f2f2f2" stroke="none" />
    </g>
  </defs>
  <g transform="matrix(1 0 0 1 -194 -63 )">
    <use xlink:href="#widget191" filter="url(#filter190)" />
    <use xlink:href="#widget191" />
  </g>
</svg>