<?xml version="1.0" encoding="utf-8"?>
<svg version="1.1" xmlns:xlink="http://www.w3.org/1999/xlink" width="16px" height="17px" xmlns="http://www.w3.org/2000/svg">
  <defs>
    <mask fill="white" id="clip183">
      <path d="M 0.5333333333333333 6.5078125  C 0.5333333333333333 3.2070481724999995  3.2196248319999845 0.53125  6.533333333333333 0.53125  C 9.847041813333332 0.53125  12.533333333333333 3.2070481724999995  12.533333333333333 6.5078125  C 12.533333333333333 8.15819466375  11.86176042666666 9.65233533125  10.775973973333324 10.733880324999998  L 15.752284799999991 15.690752437499999  L 14.80947573333336 16.62987855  L 9.727645333333324 11.567908931249999  C 8.802680533333357 12.1484824125  7.707386709333332 12.484375  6.533333333333333 12.484375  C 3.2196248319999845 12.484375  0.5333333333333333 9.808576806249999  0.5333333333333333 6.5078125  Z M 11.2 6.5078125  C 11.2 3.9405513587499996  9.11066218666668 1.859375  6.533333333333333 1.859375  C 3.9560045013333367 1.859375  1.8666666666666667 3.9405513587499996  1.8666666666666667 6.5078125  C 1.8666666666666667 9.0750736625  3.9560045013333367 11.15625  6.533333333333333 11.15625  C 9.11066218666668 11.15625  11.2 9.0750736625  11.2 6.5078125  Z " fill-rule="evenodd" />
    </mask>
  </defs>
  <g transform="matrix(1 0 0 1 -1447 -36 )">
    <path d="M 0.5333333333333333 6.5078125  C 0.5333333333333333 3.2070481724999995  3.2196248319999845 0.53125  6.533333333333333 0.53125  C 9.847041813333332 0.53125  12.533333333333333 3.2070481724999995  12.533333333333333 6.5078125  C 12.533333333333333 8.15819466375  11.86176042666666 9.65233533125  10.775973973333324 10.733880324999998  L 15.752284799999991 15.690752437499999  L 14.80947573333336 16.62987855  L 9.727645333333324 11.567908931249999  C 8.802680533333357 12.1484824125  7.707386709333332 12.484375  6.533333333333333 12.484375  C 3.2196248319999845 12.484375  0.5333333333333333 9.808576806249999  0.5333333333333333 6.5078125  Z M 11.2 6.5078125  C 11.2 3.9405513587499996  9.11066218666668 1.859375  6.533333333333333 1.859375  C 3.9560045013333367 1.859375  1.8666666666666667 3.9405513587499996  1.8666666666666667 6.5078125  C 1.8666666666666667 9.0750736625  3.9560045013333367 11.15625  6.533333333333333 11.15625  C 9.11066218666668 11.15625  11.2 9.0750736625  11.2 6.5078125  Z " fill-rule="nonzero" fill="#000000" stroke="none" fill-opacity="0.1568627450980392" transform="matrix(1 0 0 1 1447 36 )" />
    <path d="M 0.5333333333333333 6.5078125  C 0.5333333333333333 3.2070481724999995  3.2196248319999845 0.53125  6.533333333333333 0.53125  C 9.847041813333332 0.53125  12.533333333333333 3.2070481724999995  12.533333333333333 6.5078125  C 12.533333333333333 8.15819466375  11.86176042666666 9.65233533125  10.775973973333324 10.733880324999998  L 15.752284799999991 15.690752437499999  L 14.80947573333336 16.62987855  L 9.727645333333324 11.567908931249999  C 8.802680533333357 12.1484824125  7.707386709333332 12.484375  6.533333333333333 12.484375  C 3.2196248319999845 12.484375  0.5333333333333333 9.808576806249999  0.5333333333333333 6.5078125  Z " stroke-width="2" stroke="#d7d7d7" fill="none" transform="matrix(1 0 0 1 1447 36 )" mask="url(#clip183)" />
    <path d="M 11.2 6.5078125  C 11.2 3.9405513587499996  9.11066218666668 1.859375  6.533333333333333 1.859375  C 3.9560045013333367 1.859375  1.8666666666666667 3.9405513587499996  1.8666666666666667 6.5078125  C 1.8666666666666667 9.0750736625  3.9560045013333367 11.15625  6.533333333333333 11.15625  C 9.11066218666668 11.15625  11.2 9.0750736625  11.2 6.5078125  Z " stroke-width="2" stroke="#d7d7d7" fill="none" transform="matrix(1 0 0 1 1447 36 )" mask="url(#clip183)" />
  </g>
</svg>