<?xml version="1.0" encoding="utf-8"?>
<svg version="1.1" xmlns:xlink="http://www.w3.org/1999/xlink" width="11px" height="14px" xmlns="http://www.w3.org/2000/svg">
  <defs>
    <mask fill="white" id="clip318">
      <path d="M 5.521023694999993 11.7982588  L 9.404707400000001 8.245713039999998  L 10.182524879999992 8.952819820000002  L 5.918507572999996 12.854618900000006  C 5.751292217000007 13.007629699999995  5.501966030000004 13.0413705  5.298543975999995 12.955461100000008  C 5.238585670999998 12.932172300000005  5.182421430999996 12.898266500000005  5.133097364999998 12.854193300000006  L 0.8148228989999964 8.995624539999994  L 1.5926403570000005 8.288517760000005  L 5.521023694999993 11.7982588  Z M 5.293068538999992 1.0462376100000057  L 5.312785313000001 1.038748659999996  C 5.513499100999995 0.9602605099999978  5.755174501999999 0.9959228299999977  5.918507572999996 1.1453811500000057  L 10.182524879999992 5.047180179999998  L 9.404707400000001 5.754286960000002  L 5.521023694999993 2.2002587900000066  L 1.5926403570000005 5.711482239999995  L 0.8148228989999964 5.004375460000006  L 5.133097364999998 1.145806719999996  C 5.180944659000002 1.1030530499999998  5.235228679999996 1.0698671100000041  5.293068538999992 1.0462376100000057  Z " fill-rule="evenodd" />
    </mask>
  </defs>
  <g transform="matrix(1 0 0 1 -238 -100 )">
    <path d="M 5.521023694999993 11.7982588  L 9.404707400000001 8.245713039999998  L 10.182524879999992 8.952819820000002  L 5.918507572999996 12.854618900000006  C 5.751292217000007 13.007629699999995  5.501966030000004 13.0413705  5.298543975999995 12.955461100000008  C 5.238585670999998 12.932172300000005  5.182421430999996 12.898266500000005  5.133097364999998 12.854193300000006  L 0.8148228989999964 8.995624539999994  L 1.5926403570000005 8.288517760000005  L 5.521023694999993 11.7982588  Z M 5.293068538999992 1.0462376100000057  L 5.312785313000001 1.038748659999996  C 5.513499100999995 0.9602605099999978  5.755174501999999 0.9959228299999977  5.918507572999996 1.1453811500000057  L 10.182524879999992 5.047180179999998  L 9.404707400000001 5.754286960000002  L 5.521023694999993 2.2002587900000066  L 1.5926403570000005 5.711482239999995  L 0.8148228989999964 5.004375460000006  L 5.133097364999998 1.145806719999996  C 5.180944659000002 1.1030530499999998  5.235228679999996 1.0698671100000041  5.293068538999992 1.0462376100000057  Z " fill-rule="nonzero" fill="#000000" stroke="none" fill-opacity="0.2980392156862745" transform="matrix(1 0 0 1 238 100 )" />
    <path d="M 5.521023694999993 11.7982588  L 9.404707400000001 8.245713039999998  L 10.182524879999992 8.952819820000002  L 5.918507572999996 12.854618900000006  C 5.751292217000007 13.007629699999995  5.501966030000004 13.0413705  5.298543975999995 12.955461100000008  C 5.238585670999998 12.932172300000005  5.182421430999996 12.898266500000005  5.133097364999998 12.854193300000006  L 0.8148228989999964 8.995624539999994  L 1.5926403570000005 8.288517760000005  L 5.521023694999993 11.7982588  Z " stroke-width="2" stroke="#7f7f7f" fill="none" transform="matrix(1 0 0 1 238 100 )" mask="url(#clip318)" />
    <path d="M 5.293068538999992 1.0462376100000057  L 5.312785313000001 1.038748659999996  C 5.513499100999995 0.9602605099999978  5.755174501999999 0.9959228299999977  5.918507572999996 1.1453811500000057  L 10.182524879999992 5.047180179999998  L 9.404707400000001 5.754286960000002  L 5.521023694999993 2.2002587900000066  L 1.5926403570000005 5.711482239999995  L 0.8148228989999964 5.004375460000006  L 5.133097364999998 1.145806719999996  C 5.180944659000002 1.1030530499999998  5.235228679999996 1.0698671100000041  5.293068538999992 1.0462376100000057  Z " stroke-width="2" stroke="#7f7f7f" fill="none" transform="matrix(1 0 0 1 238 100 )" mask="url(#clip318)" />
  </g>
</svg>