<?xml version="1.0" encoding="utf-8"?>
<svg version="1.1" xmlns:xlink="http://www.w3.org/1999/xlink" width="15px" height="17px" xmlns="http://www.w3.org/2000/svg">
  <defs>
    <mask fill="white" id="clip166">
      <path d="M 0.5 6.5078125  C 0.5 3.2070481724999995  3.0183982799999853 0.53125  6.125 0.53125  C 9.231601699999999 0.53125  11.75 3.2070481724999995  11.75 6.5078125  C 11.75 8.15819466375  11.120400399999994 9.65233533125  10.102475599999991 10.733880324999998  L 14.767766999999992 15.690752437499999  L 13.883883500000024 16.62987855  L 9.119667499999991 11.567908931249999  C 8.252513000000022 12.1484824125  7.225675039999999 12.484375  6.125 12.484375  C 3.0183982799999853 12.484375  0.5 9.808576806249999  0.5 6.5078125  Z M 10.5 6.5078125  C 10.5 3.9405513587499996  8.541245800000013 1.859375  6.125 1.859375  C 3.708754220000003 1.859375  1.75 3.9405513587499996  1.75 6.5078125  C 1.75 9.0750736625  3.708754220000003 11.15625  6.125 11.15625  C 8.541245800000013 11.15625  10.5 9.0750736625  10.5 6.5078125  Z " fill-rule="evenodd" />
    </mask>
  </defs>
  <g transform="matrix(1 0 0 1 -1474 -40 )">
    <path d="M 0.5 6.5078125  C 0.5 3.2070481724999995  3.0183982799999853 0.53125  6.125 0.53125  C 9.231601699999999 0.53125  11.75 3.2070481724999995  11.75 6.5078125  C 11.75 8.15819466375  11.120400399999994 9.65233533125  10.102475599999991 10.733880324999998  L 14.767766999999992 15.690752437499999  L 13.883883500000024 16.62987855  L 9.119667499999991 11.567908931249999  C 8.252513000000022 12.1484824125  7.225675039999999 12.484375  6.125 12.484375  C 3.0183982799999853 12.484375  0.5 9.808576806249999  0.5 6.5078125  Z M 10.5 6.5078125  C 10.5 3.9405513587499996  8.541245800000013 1.859375  6.125 1.859375  C 3.708754220000003 1.859375  1.75 3.9405513587499996  1.75 6.5078125  C 1.75 9.0750736625  3.708754220000003 11.15625  6.125 11.15625  C 8.541245800000013 11.15625  10.5 9.0750736625  10.5 6.5078125  Z " fill-rule="nonzero" fill="#000000" stroke="none" fill-opacity="0.1568627450980392" transform="matrix(1 0 0 1 1474 40 )" />
    <path d="M 0.5 6.5078125  C 0.5 3.2070481724999995  3.0183982799999853 0.53125  6.125 0.53125  C 9.231601699999999 0.53125  11.75 3.2070481724999995  11.75 6.5078125  C 11.75 8.15819466375  11.120400399999994 9.65233533125  10.102475599999991 10.733880324999998  L 14.767766999999992 15.690752437499999  L 13.883883500000024 16.62987855  L 9.119667499999991 11.567908931249999  C 8.252513000000022 12.1484824125  7.225675039999999 12.484375  6.125 12.484375  C 3.0183982799999853 12.484375  0.5 9.808576806249999  0.5 6.5078125  Z " stroke-width="2" stroke="#d7d7d7" fill="none" transform="matrix(1 0 0 1 1474 40 )" mask="url(#clip166)" />
    <path d="M 10.5 6.5078125  C 10.5 3.9405513587499996  8.541245800000013 1.859375  6.125 1.859375  C 3.708754220000003 1.859375  1.75 3.9405513587499996  1.75 6.5078125  C 1.75 9.0750736625  3.708754220000003 11.15625  6.125 11.15625  C 8.541245800000013 11.15625  10.5 9.0750736625  10.5 6.5078125  Z " stroke-width="2" stroke="#d7d7d7" fill="none" transform="matrix(1 0 0 1 1474 40 )" mask="url(#clip166)" />
  </g>
</svg>