<?xml version="1.0" encoding="utf-8"?>
<svg version="1.1" xmlns:xlink="http://www.w3.org/1999/xlink" width="12px" height="14px" xmlns="http://www.w3.org/2000/svg">
  <defs>
    <mask fill="white" id="clip321">
      <path d="M 6.022934939999993 11.7982588  L 10.259680800000002 8.245713039999998  L 11.108208959999992 8.952819820000002  L 6.456553715999996 12.854618900000006  C 6.274136964000007 13.007629699999995  6.002144760000004 13.0413705  5.780229791999995 12.955461100000008  C 5.714820731999998 12.932172300000005  5.653550651999996 12.898266500000005  5.599742579999997 12.854193300000006  L 0.888897707999996 8.995624539999994  L 1.7374258440000006 8.288517760000005  L 6.022934939999993 11.7982588  Z M 5.774256587999991 1.0462376100000057  L 5.795765796000001 1.038748659999996  C 6.014726291999995 0.9602605099999978  6.278372183999999 0.9959228299999977  6.456553715999996 1.1453811500000057  L 11.108208959999992 5.047180179999998  L 10.259680800000002 5.754286960000002  L 6.022934939999993 2.2002587900000066  L 1.7374258440000006 5.711482239999995  L 0.888897707999996 5.004375460000006  L 5.599742579999997 1.145806719999996  C 5.651939628000003 1.1030530499999998  5.711158559999996 1.0698671100000041  5.774256587999991 1.0462376100000057  Z " fill-rule="evenodd" />
    </mask>
  </defs>
  <g transform="matrix(1 0 0 1 -598 -100 )">
    <path d="M 6.022934939999993 11.7982588  L 10.259680800000002 8.245713039999998  L 11.108208959999992 8.952819820000002  L 6.456553715999996 12.854618900000006  C 6.274136964000007 13.007629699999995  6.002144760000004 13.0413705  5.780229791999995 12.955461100000008  C 5.714820731999998 12.932172300000005  5.653550651999996 12.898266500000005  5.599742579999997 12.854193300000006  L 0.888897707999996 8.995624539999994  L 1.7374258440000006 8.288517760000005  L 6.022934939999993 11.7982588  Z M 5.774256587999991 1.0462376100000057  L 5.795765796000001 1.038748659999996  C 6.014726291999995 0.9602605099999978  6.278372183999999 0.9959228299999977  6.456553715999996 1.1453811500000057  L 11.108208959999992 5.047180179999998  L 10.259680800000002 5.754286960000002  L 6.022934939999993 2.2002587900000066  L 1.7374258440000006 5.711482239999995  L 0.888897707999996 5.004375460000006  L 5.599742579999997 1.145806719999996  C 5.651939628000003 1.1030530499999998  5.711158559999996 1.0698671100000041  5.774256587999991 1.0462376100000057  Z " fill-rule="nonzero" fill="#000000" stroke="none" fill-opacity="0.2980392156862745" transform="matrix(1 0 0 1 598 100 )" />
    <path d="M 6.022934939999993 11.7982588  L 10.259680800000002 8.245713039999998  L 11.108208959999992 8.952819820000002  L 6.456553715999996 12.854618900000006  C 6.274136964000007 13.007629699999995  6.002144760000004 13.0413705  5.780229791999995 12.955461100000008  C 5.714820731999998 12.932172300000005  5.653550651999996 12.898266500000005  5.599742579999997 12.854193300000006  L 0.888897707999996 8.995624539999994  L 1.7374258440000006 8.288517760000005  L 6.022934939999993 11.7982588  Z " stroke-width="2" stroke="#7f7f7f" fill="none" transform="matrix(1 0 0 1 598 100 )" mask="url(#clip321)" />
    <path d="M 5.774256587999991 1.0462376100000057  L 5.795765796000001 1.038748659999996  C 6.014726291999995 0.9602605099999978  6.278372183999999 0.9959228299999977  6.456553715999996 1.1453811500000057  L 11.108208959999992 5.047180179999998  L 10.259680800000002 5.754286960000002  L 6.022934939999993 2.2002587900000066  L 1.7374258440000006 5.711482239999995  L 0.888897707999996 5.004375460000006  L 5.599742579999997 1.145806719999996  C 5.651939628000003 1.1030530499999998  5.711158559999996 1.0698671100000041  5.774256587999991 1.0462376100000057  Z " stroke-width="2" stroke="#7f7f7f" fill="none" transform="matrix(1 0 0 1 598 100 )" mask="url(#clip321)" />
  </g>
</svg>