<?xml version="1.0" encoding="utf-8"?>
<svg version="1.1" xmlns:xlink="http://www.w3.org/1999/xlink" width="11px" height="16px" xmlns="http://www.w3.org/2000/svg">
  <defs>
    <mask fill="white" id="clip319">
      <path d="M 5.521023694999993 13.483724342857142  L 9.404707400000001 9.423672045714284  L 10.182524879999992 10.231794080000002  L 5.918507572999996 14.690993028571436  C 5.751292217000007 14.865862514285709  5.501966030000004 14.904423428571429  5.298543975999995 14.806241257142867  C 5.238585670999998 14.779625485714291  5.182421430999996 14.740876000000005  5.133097364999998 14.690506628571436  L 0.8148228989999964 10.280713759999994  L 1.5926403570000005 9.472591725714292  L 5.521023694999993 13.483724342857142  Z M 5.293068538999992 1.1957001257142923  L 5.312785313000001 1.187141325714281  C 5.513499100999995 1.0974405828571403  5.755174501999999 1.1381975199999974  5.918507572999996 1.309007028571435  L 10.182524879999992 5.768205919999998  L 9.404707400000001 6.576327954285716  L 5.521023694999993 2.514581474285722  L 1.5926403570000005 6.527408274285709  L 0.8148228989999964 5.719286240000007  L 5.133097364999998 1.3094933942857097  C 5.180944659000002 1.2606320571428569  5.235228679999996 1.2227052685714332  5.293068538999992 1.1957001257142923  Z " fill-rule="evenodd" />
    </mask>
  </defs>
  <g transform="matrix(1 0 0 1 -672 -100 )">
    <path d="M 5.521023694999993 13.483724342857142  L 9.404707400000001 9.423672045714284  L 10.182524879999992 10.231794080000002  L 5.918507572999996 14.690993028571436  C 5.751292217000007 14.865862514285709  5.501966030000004 14.904423428571429  5.298543975999995 14.806241257142867  C 5.238585670999998 14.779625485714291  5.182421430999996 14.740876000000005  5.133097364999998 14.690506628571436  L 0.8148228989999964 10.280713759999994  L 1.5926403570000005 9.472591725714292  L 5.521023694999993 13.483724342857142  Z M 5.293068538999992 1.1957001257142923  L 5.312785313000001 1.187141325714281  C 5.513499100999995 1.0974405828571403  5.755174501999999 1.1381975199999974  5.918507572999996 1.309007028571435  L 10.182524879999992 5.768205919999998  L 9.404707400000001 6.576327954285716  L 5.521023694999993 2.514581474285722  L 1.5926403570000005 6.527408274285709  L 0.8148228989999964 5.719286240000007  L 5.133097364999998 1.3094933942857097  C 5.180944659000002 1.2606320571428569  5.235228679999996 1.2227052685714332  5.293068538999992 1.1957001257142923  Z " fill-rule="nonzero" fill="#000000" stroke="none" fill-opacity="0.2980392156862745" transform="matrix(1 0 0 1 672 100 )" />
    <path d="M 5.521023694999993 13.483724342857142  L 9.404707400000001 9.423672045714284  L 10.182524879999992 10.231794080000002  L 5.918507572999996 14.690993028571436  C 5.751292217000007 14.865862514285709  5.501966030000004 14.904423428571429  5.298543975999995 14.806241257142867  C 5.238585670999998 14.779625485714291  5.182421430999996 14.740876000000005  5.133097364999998 14.690506628571436  L 0.8148228989999964 10.280713759999994  L 1.5926403570000005 9.472591725714292  L 5.521023694999993 13.483724342857142  Z " stroke-width="2" stroke="#7f7f7f" fill="none" transform="matrix(1 0 0 1 672 100 )" mask="url(#clip319)" />
    <path d="M 5.293068538999992 1.1957001257142923  L 5.312785313000001 1.187141325714281  C 5.513499100999995 1.0974405828571403  5.755174501999999 1.1381975199999974  5.918507572999996 1.309007028571435  L 10.182524879999992 5.768205919999998  L 9.404707400000001 6.576327954285716  L 5.521023694999993 2.514581474285722  L 1.5926403570000005 6.527408274285709  L 0.8148228989999964 5.719286240000007  L 5.133097364999998 1.3094933942857097  C 5.180944659000002 1.2606320571428569  5.235228679999996 1.2227052685714332  5.293068538999992 1.1957001257142923  Z " stroke-width="2" stroke="#7f7f7f" fill="none" transform="matrix(1 0 0 1 672 100 )" mask="url(#clip319)" />
  </g>
</svg>