<?xml version="1.0" encoding="utf-8"?>
<svg version="1.1" xmlns:xlink="http://www.w3.org/1999/xlink" width="90px" height="39px" xmlns="http://www.w3.org/2000/svg">
  <defs>
    <mask fill="white" id="clip336">
      <path d="M 0 0  L 90 0  L 90 37.37500000000005  C 90 38.272462718750056  89.28045723214281 39  88.39285714285714 39  L 1.6071428571428876 39  C 0.7195423660714388 39  0 38.272462718750056  0 37.37500000000005  L 0 0  Z " fill-rule="evenodd" />
    </mask>
  </defs>
  <g transform="matrix(1 0 0 1 -19 -60 )">
    <path d="M 0 0  L 90 0  L 90 37.37500000000005  C 90 38.272462718750056  89.28045723214281 39  88.39285714285714 39  L 1.6071428571428876 39  C 0.7195423660714388 39  0 38.272462718750056  0 37.37500000000005  L 0 0  Z " fill-rule="nonzero" fill="#ffffff" stroke="none" transform="matrix(1 0 0 1 19 60 )" />
    <path d="M 0 0  L 90 0  L 90 37.37500000000005  C 90 38.272462718750056  89.28045723214281 39  88.39285714285714 39  L 1.6071428571428876 39  C 0.7195423660714388 39  0 38.272462718750056  0 37.37500000000005  L 0 0  Z " stroke-width="2" stroke="#d7d7d7" fill="none" transform="matrix(1 0 0 1 19 60 )" mask="url(#clip336)" />
  </g>
</svg>