<?xml version="1.0" encoding="utf-8"?>
<svg version="1.1" xmlns:xlink="http://www.w3.org/1999/xlink" width="96px" height="39px" xmlns="http://www.w3.org/2000/svg">
  <defs>
    <mask fill="white" id="clip334">
      <path d="M 0 0  L 96 0  L 96 37.37500000000005  C 96 38.272462718750056  95.23248771428572 39  94.28571428571442 39  L 1.7142857142857142 39  C 0.7675118571429331 39  0 38.272462718750056  0 37.37500000000005  L 0 0  Z " fill-rule="evenodd" />
    </mask>
  </defs>
  <g transform="matrix(1 0 0 1 -113 -60 )">
    <path d="M 0 0  L 96 0  L 96 37.37500000000005  C 96 38.272462718750056  95.23248771428572 39  94.28571428571442 39  L 1.7142857142857142 39  C 0.7675118571429331 39  0 38.272462718750056  0 37.37500000000005  L 0 0  Z " fill-rule="nonzero" fill="#ffffff" stroke="none" transform="matrix(1 0 0 1 113 60 )" />
    <path d="M 0 0  L 96 0  L 96 37.37500000000005  C 96 38.272462718750056  95.23248771428572 39  94.28571428571442 39  L 1.7142857142857142 39  C 0.7675118571429331 39  0 38.272462718750056  0 37.37500000000005  L 0 0  Z " stroke-width="2" stroke="#d7d7d7" fill="none" transform="matrix(1 0 0 1 113 60 )" mask="url(#clip334)" />
  </g>
</svg>