<?xml version="1.0" encoding="utf-8"?>
<svg version="1.1" xmlns:xlink="http://www.w3.org/1999/xlink" width="63px" height="32px" xmlns="http://www.w3.org/2000/svg">
  <defs>
    <mask fill="white" id="clip320">
      <path d="M 0 29.5  C 0 29.5  0 2.5  0 2.5  C 0 1.1193000000000097  1.1015156249999905 0  2.4609375 0  C 2.4609375 0  63 0  63 0  C 63 0  63 32  63 32  C 63 32  2.4609375 32  2.4609375 32  C 1.1015156249999905 32  0 30.880700000000047  0 29.5  Z " fill-rule="evenodd" />
    </mask>
  </defs>
  <g transform="matrix(1 0 0 1 -1470 -300 )">
    <path d="M 0 29.5  C 0 29.5  0 2.5  0 2.5  C 0 1.1193000000000097  1.1015156249999905 0  2.4609375 0  C 2.4609375 0  63 0  63 0  C 63 0  63 32  63 32  C 63 32  2.4609375 32  2.4609375 32  C 1.1015156249999905 32  0 30.880700000000047  0 29.5  Z " fill-rule="nonzero" fill="#ffffff" stroke="none" transform="matrix(1 0 0 1 1470 300 )" />
    <path d="M 0 29.5  C 0 29.5  0 2.5  0 2.5  C 0 1.1193000000000097  1.1015156249999905 0  2.4609375 0  C 2.4609375 0  63 0  63 0  C 63 0  63 32  63 32  C 63 32  2.4609375 32  2.4609375 32  C 1.1015156249999905 32  0 30.880700000000047  0 29.5  Z " stroke-width="2" stroke="#dcdcdc" fill="none" transform="matrix(1 0 0 1 1470 300 )" mask="url(#clip320)" />
  </g>
</svg>