<svg width="16" height="16" viewBox="0 0 16 16" fill="rgba(0, 0, 0, 0.6)" xmlns="http://www.w3.org/2000/svg">
<path d="M1 1C0.813564 1 0.642611 1.10373 0.556512 1.26909C0.470413 1.43446 0.48347 1.634 0.590385 1.78673L4 6.65761V11.5C4 11.6082 4.03509 11.7135 4.1 11.8L5.3 13.4C5.46569 13.6209 5.77909 13.6657 6 13.5C6.22091 13.3343 6.26569 13.0209 6.1 12.8L5 11.3333V6.5C5 6.39741 4.96845 6.29731 4.90962 6.21327L1.96033 2H11.0397L8.09039 6.21327C8.03156 6.29731 8 6.39741 8 6.5V14.5C8 14.7761 8.22386 15 8.5 15C8.77614 15 9 14.7761 9 14.5V6.65761L12.4096 1.78673C12.5165 1.634 12.5296 1.43446 12.4435 1.26909C12.3574 1.10373 12.1864 1 12 1H1Z" fill="rgba(0, 0, 0, 0.6)"></path>
<path d="M11.5 7C11.2239 7 11 7.22386 11 7.5C11 7.77614 11.2239 8 11.5 8H14.5C14.7761 8 15 7.77614 15 7.5C15 7.22386 14.7761 7 14.5 7H11.5Z" fill="rgba(0, 0, 0, 0.6)"></path>
<path d="M11 10.5C11 10.2239 11.2239 10 11.5 10H14.5C14.7761 10 15 10.2239 15 10.5C15 10.7761 14.7761 11 14.5 11H11.5C11.2239 11 11 10.7761 11 10.5Z" fill="rgba(0, 0, 0, 0.6)"></path>
<path d="M11.5 13C11.2239 13 11 13.2239 11 13.5C11 13.7761 11.2239 14 11.5 14H14.5C14.7761 14 15 13.7761 15 13.5C15 13.2239 14.7761 13 14.5 13H11.5Z" fill="rgba(0, 0, 0, 0.6)"></path>
</svg>
