<svg width="16" height="16" viewBox="0 0 16 16" fill="#cccccc" xmlns="http://www.w3.org/2000/svg">
<path d="M9.76033 10.4686C8.94189 11.1314 7.89943 11.5284 6.76424 11.5284C4.13302 11.5284 2 9.39541 2 6.76421C2 4.13301 4.13302 2 6.76424 2C9.39545 2 11.5285 4.13301 11.5285 6.76421C11.5285 7.89942 11.1314 8.94189 10.4686 9.76034L14 13.2917L13.2917 14L9.76033 10.4686ZM10.5268 6.76421C10.5268 4.68623 8.84224 3.00168 6.76424 3.00168C4.68623 3.00168 3.00168 4.68623 3.00168 6.76421C3.00168 8.84219 4.68623 10.5267 6.76424 10.5267C8.84224 10.5267 10.5268 8.84219 10.5268 6.76421Z" fill="#cccccc"></path>
</svg>
