<svg width="16" height="16" viewBox="0 0 16 16" fill="rgba(0, 0, 0, 0.6)" xmlns="http://www.w3.org/2000/svg">
<path d="M13.5 1C14.3284 1 15 1.67157 15 2.5V13.5C15 14.3284 14.3284 15 13.5 15H2.5C1.67157 15 1 14.3284 1 13.5V2.5C1 1.67157 1.67157 1 2.5 1H13.5ZM5 6H2V13.25C2 13.63 2.285 13.95 2.662 13.995L2.75 14H5V6ZM10 5.995L6 6V14L10 13.995V5.995ZM14 6L11 5.995V13.995L13.25 14C13.63 14 13.95 13.715 13.995 13.338L14 13.25V6ZM13.286 2H2.714C2.352 2 2.047 2.19 2.005 2.442L2 2.5V5H14V2.5C14 2.224 13.68 2 13.286 2Z" fill="rgba(0, 0, 0, 0.6)"></path>
</svg>
