<svg width="16" height="16" viewBox="0 0 16 16" fill="#2a50d7" xmlns="http://www.w3.org/2000/svg">
<path d="M1.5 8C1.5 4.41015 4.41015 1.5 8 1.5C9.46328 1.5 10.8137 1.98332 11.9004 2.79969L10.5 4L14.5 5L14 1L12.6754 2.13537C11.3935 1.11217 9.76827 0.5 8 0.5C3.85786 0.5 0.5 3.85786 0.5 8C0.5 12.1421 3.85786 15.5 8 15.5C12.1421 15.5 15.5 12.1421 15.5 8C15.5 7.72386 15.2761 7.5 15 7.5C14.7239 7.5 14.5 7.72386 14.5 8C14.5 11.5899 11.5899 14.5 8 14.5C4.41015 14.5 1.5 11.5899 1.5 8Z" fill="#2a50d7"></path>
</svg>
