<?xml version="1.0" encoding="utf-8"?>
<svg version="1.1" xmlns:xlink="http://www.w3.org/1999/xlink" width="377px" height="38px" xmlns="http://www.w3.org/2000/svg">
  <defs>
    <filter x="119px" y="9px" width="377px" height="38px" filterUnits="userSpaceOnUse" id="filter322">
      <feOffset dx="2" dy="3" in="SourceAlpha" result="shadowOffsetInner" />
      <feGaussianBlur stdDeviation="2" in="shadowOffsetInner" result="shadowGaussian" />
      <feComposite in2="shadowGaussian" operator="atop" in="SourceAlpha" result="shadowComposite" />
      <feColorMatrix type="matrix" values="0 0 0 0 0.8431372549019608  0 0 0 0 0.8431372549019608  0 0 0 0 0.8431372549019608  0 0 0 0.2980392156862745 0  " in="shadowComposite" />
    </filter>
    <g id="widget323">
      <path d="M 121.5 34.69218628593619  C 121.5 34.69218628593619  121.5 13  121.5 13  C 121.5 11.619288125423017  122.61928812542301 10.5  124 10.5  C 124 10.5  487 10.5  487 10.5  C 488.380711874577 10.5  489.5 11.619288125423017  489.5 13  C 489.5 13  489.5 34.69218628593619  489.5 34.69218628593619  C 489.5 36.072898160513176  488.380711874577 37.19218628593619  487 37.19218628593619  C 487 37.19218628593619  186.45224806250164 37.19218628593619  186.45224806250164 37.19218628593619  C 186.45224806250164 37.19218628593619  179 38.62872608609997  179 38.62872608609997  C 179 38.62872608609997  171.54775193749785 37.19218628593619  171.54775193749785 37.19218628593619  C 171.54775193749785 37.19218628593619  124 37.19218628593619  124 37.19218628593619  C 122.61928812542301 37.19218628593619  121.5 36.072898160513176  121.5 34.69218628593619  Z " fill-rule="nonzero" fill="#ffffff" stroke="none" />
      <path d="M 121 34.69218628593619  C 121 34.69218628593619  121 13  121 13  C 121 11.34314575050762  122.34314575050762 10  124 10  C 124 10  487 10  487 10  C 488.65685424949237 10  490 11.34314575050762  490 13  C 490 13  490 34.69218628593619  490 34.69218628593619  C 490 36.34904053542857  488.65685424949237 37.69218628593619  487 37.69218628593619  C 487 37.69218628593619  186.5 37.69218628593619  186.5 37.69218628593619  C 186.5 37.69218628593619  179 39.13793103448279  179 39.13793103448279  C 179 39.13793103448279  171.5 37.69218628593619  171.5 37.69218628593619  C 171.5 37.69218628593619  124 37.69218628593619  124 37.69218628593619  C 122.34314575050762 37.69218628593619  121 36.34904053542857  121 34.69218628593619  Z M 122 34.69218628593619  C 122 35.796755785597774  122.8954305003384 36.69218628593619  124 36.69218628593619  C 124 36.69218628593619  171.59550387499695 36.69218628593619  171.59550387499695 36.69218628593619  C 171.59550387499695 36.69218628593619  179 38.11952113771714  179 38.11952113771714  C 179 38.11952113771714  186.40449612500328 36.69218628593619  186.40449612500328 36.69218628593619  C 186.40449612500328 36.69218628593619  487 36.69218628593619  487 36.69218628593619  C 488.1045694996616 36.69218628593619  489 35.796755785597774  489 34.69218628593619  C 489 34.69218628593619  489 13  489 13  C 489 11.895430500338414  488.1045694996616 11  487 11  C 487 11  124 11  124 11  C 122.8954305003384 11  122 11.895430500338414  122 13  C 122 13  122 34.69218628593619  122 34.69218628593619  Z " fill-rule="nonzero" fill="#f2f2f2" stroke="none" />
    </g>
  </defs>
  <g transform="matrix(1 0 0 1 -119 -9 )">
    <use xlink:href="#widget323" filter="url(#filter322)" />
    <use xlink:href="#widget323" />
  </g>
</svg>