<?xml version="1.0" encoding="utf-8"?>
<svg version="1.1" xmlns:xlink="http://www.w3.org/1999/xlink" width="380px" height="46px" xmlns="http://www.w3.org/2000/svg">
  <defs>
    <filter x="119px" y="6px" width="380px" height="46px" filterUnits="userSpaceOnUse" id="filter324">
      <feOffset dx="2" dy="3" in="SourceAlpha" result="shadowOffsetInner" />
      <feGaussianBlur stdDeviation="2" in="shadowOffsetInner" result="shadowGaussian" />
      <feComposite in2="shadowGaussian" operator="atop" in="SourceAlpha" result="shadowComposite" />
      <feColorMatrix type="matrix" values="0 0 0 0 0.8431372549019608  0 0 0 0 0.8431372549019608  0 0 0 0 0.8431372549019608  0 0 0 0.2980392156862745 0  " in="shadowComposite" />
    </filter>
    <g id="widget325">
      <path d="M 121.5 34.06580225330215  C 121.5 34.06580225330215  121.5 10  121.5 10  C 121.5 8.619288125423017  122.61928812542301 7.5  124 7.5  C 124 7.5  490 7.5  490 7.5  C 491.380711874577 7.5  492.5 8.619288125423017  492.5 10  C 492.5 10  492.5 34.06580225330215  492.5 34.06580225330215  C 492.5 35.446514127879134  491.380711874577 36.56580225330215  490 36.56580225330215  C 490 36.56580225330215  183.42247424594245 36.56580225330215  183.42247424594245 36.56580225330215  C 183.42247424594245 36.56580225330215  173.0475081867232 43.94905446578287  173.0475081867232 43.94905446578287  C 173.0475081867232 43.94905446578287  164.77286362240193 36.56580225330215  164.77286362240193 36.56580225330215  C 164.77286362240193 36.56580225330215  124 36.56580225330215  124 36.56580225330215  C 122.61928812542301 36.56580225330215  121.5 35.446514127879134  121.5 34.06580225330215  Z " fill-rule="nonzero" fill="#ffffff" stroke="none" />
      <path d="M 121 34.06580225330215  C 121 34.06580225330215  121 10  121 10  C 121 8.34314575050762  122.34314575050762 7  124 7  C 124 7  490 7  490 7  C 491.65685424949237 7  493 8.34314575050762  493 10  C 493 10  493 34.06580225330215  493 34.06580225330215  C 493 35.72265650279453  491.65685424949237 37.06580225330215  490 37.06580225330215  C 490 37.06580225330215  183.58222355230194 37.06580225330215  183.58222355230194 37.06580225330215  C 183.58222355230194 37.06580225330215  173.01233235702173 44.58777120315583  173.01233235702173 44.58777120315583  C 173.01233235702173 44.58777120315583  164.58222355230194 37.06580225330215  164.58222355230194 37.06580225330215  C 164.58222355230194 37.06580225330215  124 37.06580225330215  124 37.06580225330215  C 122.34314575050762 37.06580225330215  121 35.72265650279453  121 34.06580225330215  Z M 122 34.06580225330215  C 122 35.17037175296373  122.8954305003384 36.06580225330215  124 36.06580225330215  C 124 36.06580225330215  164.96350369250172 36.06580225330215  164.96350369250172 36.06580225330215  C 164.96350369250172 36.06580225330215  173.08268401642465 43.31033772840991  173.08268401642465 43.31033772840991  C 173.08268401642465 43.31033772840991  183.26272493958297 36.06580225330215  183.26272493958297 36.06580225330215  C 183.26272493958297 36.06580225330215  490 36.065802253302145  490 36.065802253302145  C 491.1045694996616 36.06580225330215  492 35.17037175296373  492 34.06580225330215  C 492 34.06580225330215  492 10  492 10  C 492 8.895430500338414  491.1045694996616 8  490 8  C 490 8  124 8  124 8  C 122.8954305003384 8  122 8.895430500338414  122 10  C 122 10  122 34.06580225330215  122 34.06580225330215  Z " fill-rule="nonzero" fill="#f2f2f2" stroke="none" />
    </g>
  </defs>
  <g transform="matrix(1 0 0 1 -119 -6 )">
    <use xlink:href="#widget325" filter="url(#filter324)" />
    <use xlink:href="#widget325" />
  </g>
</svg>