<?xml version="1.0" encoding="utf-8"?>
<svg version="1.1" xmlns:xlink="http://www.w3.org/1999/xlink" width="573px" height="99px" xmlns="http://www.w3.org/2000/svg">
  <defs>
    <filter x="203px" y="-59px" width="573px" height="99px" filterUnits="userSpaceOnUse" id="filter326">
      <feOffset dx="2" dy="3" in="SourceAlpha" result="shadowOffsetInner" />
      <feGaussianBlur stdDeviation="2" in="shadowOffsetInner" result="shadowGaussian" />
      <feComposite in2="shadowGaussian" operator="atop" in="SourceAlpha" result="shadowComposite" />
      <feColorMatrix type="matrix" values="0 0 0 0 0.8431372549019608  0 0 0 0 0.8431372549019608  0 0 0 0 0.8431372549019608  0 0 0 0.2980392156862745 0  " in="shadowComposite" />
    </filter>
    <g id="widget327">
      <path d="M 205.5 16.788607134728338  C 205.5 16.788607134728338  205.5 -55  205.5 -55  C 205.5 -56.38071187457698  206.61928812542303 -57.5  208 -57.5  C 208 -57.5  767 -57.5  767 -57.5  C 768.380711874577 -57.5  769.5 -56.38071187457698  769.5 -55  C 769.5 -55  769.5 16.788607134728338  769.5 16.788607134728338  C 769.5 18.169319009305326  768.380711874577 19.288607134728338  767 19.288607134728338  C 767 19.288607134728338  329.5059102666466 19.288607134728338  329.5059102666466 19.288607134728338  C 329.5059102666466 19.288607134728338  315.47689916807167 31.442170257619395  315.47689916807167 31.442170257619395  C 315.47689916807167 31.442170257619395  310.0158584360638 19.288607134728338  310.0158584360638 19.288607134728338  C 310.0158584360638 19.288607134728338  208 19.288607134728338  208 19.288607134728338  C 206.61928812542303 19.288607134728338  205.5 18.169319009305326  205.5 16.788607134728338  Z " fill-rule="nonzero" fill="#ffffff" stroke="none" />
      <path d="M 205 16.788607134728338  C 205 16.788607134728338  205 -55  205 -55  C 205 -56.65685424949238  206.34314575050763 -58  208 -58  C 208 -58  767 -58  767 -58  C 768.6568542494924 -58  770 -56.65685424949238  770 -55  C 770 -55  770 16.788607134728338  770 16.788607134728338  C 770 18.44546138422072  768.6568542494924 19.788607134728338  767 19.788607134728338  C 767 19.788607134728338  329.69236996559397 19.788607134728338  329.69236996559397 19.788607134728338  C 329.69236996559397 19.788607134728338  315.2962962962963 32.260162601625936  315.2962962962963 32.260162601625936  C 315.2962962962963 32.260162601625936  309.69236996559397 19.788607134728338  309.69236996559397 19.788607134728338  C 309.69236996559397 19.788607134728338  208 19.788607134728338  208 19.788607134728338  C 206.34314575050763 19.788607134728338  205 18.44546138422072  205 16.788607134728338  Z M 206 16.788607134728338  C 206 17.89317663438993  206.89543050033842 18.788607134728338  208 18.788607134728338  C 208 18.788607134728338  310.3393469065338 18.788607134728338  310.3393469065338 18.788607134728338  C 310.3393469065338 18.788607134728338  315.6575020398471 30.62417791361284  315.6575020398471 30.62417791361284  C 315.6575020398471 30.62417791361284  329.3194505676992 18.788607134728338  329.3194505676992 18.788607134728338  C 329.3194505676992 18.788607134728338  767 18.788607134728338  767 18.788607134728338  C 768.1045694996616 18.788607134728338  769 17.89317663438993  769 16.788607134728338  C 769 16.788607134728338  769 -55  769 -55  C 769 -56.10456949966159  768.1045694996616 -57  767 -57  C 767 -57  208 -57  208 -57  C 206.89543050033842 -57  206 -56.10456949966159  206 -55  C 206 -55  206 16.788607134728338  206 16.788607134728338  Z " fill-rule="nonzero" fill="#f2f2f2" stroke="none" />
    </g>
  </defs>
  <g transform="matrix(1 0 0 1 -203 59 )">
    <use xlink:href="#widget327" filter="url(#filter326)" />
    <use xlink:href="#widget327" />
  </g>
</svg>