<?xml version="1.0" encoding="utf-8"?>
<svg version="1.1" xmlns:xlink="http://www.w3.org/1999/xlink" width="446px" height="49px" xmlns="http://www.w3.org/2000/svg">
  <defs>
    <filter x="31px" y="-35px" width="446px" height="49px" filterUnits="userSpaceOnUse" id="filter328">
      <feOffset dx="2" dy="3" in="SourceAlpha" result="shadowOffsetInner" />
      <feGaussianBlur stdDeviation="2" in="shadowOffsetInner" result="shadowGaussian" />
      <feComposite in2="shadowGaussian" operator="atop" in="SourceAlpha" result="shadowComposite" />
      <feColorMatrix type="matrix" values="0 0 0 0 0.8431372549019608  0 0 0 0 0.8431372549019608  0 0 0 0 0.8431372549019608  0 0 0 0.2980392156862745 0  " in="shadowComposite" />
    </filter>
    <g id="widget329">
      <path d="M 33.5 -7.081304948181415  C 33.5 -7.081304948181415  33.5 -31  33.5 -31  C 33.5 -32.38071187457698  34.61928812542302 -33.5  36 -33.5  C 36 -33.5  468 -33.5  468 -33.5  C 469.380711874577 -33.5  470.5 -32.38071187457698  470.50000000000006 -31  C 470.50000000000006 -31  470.5 -7.081304948181412  470.5 -7.081304948181412  C 470.5 -5.700593073604427  469.380711874577 -4.581304948181412  468.00000000000006 -4.581304948181412  C 468.00000000000006 -4.581304948181412  128.35297625091238 -4.581304948181412  128.35297625091238 -4.581304948181412  C 128.35297625091238 -4.581304948181412  117.4676786722303 5.613888298115015  117.4676786722303 5.613888298115015  C 117.4676786722303 5.613888298115015  108.78143110944349 -4.581304948181412  108.78143110944349 -4.581304948181412  C 108.78143110944349 -4.581304948181412  36 -4.581304948181412  36 -4.581304948181412  C 34.61928812542302 -4.581304948181412  33.5 -5.700593073604427  33.5 -7.081304948181415  Z " fill-rule="nonzero" fill="#ffffff" stroke="none" />
      <path d="M 33 -7.081304948181412  C 33 -7.081304948181412  33 -31  33 -31  C 33 -32.65685424949238  34.34314575050762 -34  36 -34  C 36 -34  468 -34  468 -34  C 469.65685424949237 -34  471 -32.65685424949238  471 -31  C 471 -31  471 -7.081304948181412  471 -7.081304948181412  C 471 -5.424450698689032  469.65685424949237 -4.081304948181412  468 -4.081304948181412  C 468 -4.081304948181412  128.5505617977528 -4.081304948181412  128.5505617977528 -4.081304948181412  C 128.5505617977528 -4.081304948181412  117.42696629213484 6.33707865168526  117.42696629213484 6.33707865168526  C 117.42696629213484 6.33707865168526  108.5505617977528 -4.081304948181412  108.5505617977528 -4.081304948181412  C 108.5505617977528 -4.081304948181412  36 -4.081304948181412  36 -4.081304948181412  C 34.34314575050762 -4.081304948181412  33 -5.424450698689032  33 -7.081304948181412  Z M 34 -7.081304948181412  C 34 -5.976735448519822  34.89543050033841 -5.081304948181415  36 -5.081304948181415  C 36 -5.081304948181415  109.0123004211344 -5.081304948181415  109.0123004211344 -5.081304948181415  C 109.0123004211344 -5.081304948181415  117.50839105232579 4.890697944544769  117.50839105232579 4.890697944544769  C 117.50839105232579 4.890697944544769  128.15539070407198 -5.081304948181415  128.15539070407198 -5.081304948181415  C 128.15539070407198 -5.081304948181415  468 -5.081304948181408  468 -5.081304948181408  C 469.1045694996616 -5.081304948181415  470 -5.976735448519822  470 -7.081304948181412  C 470 -7.081304948181412  469.99999999999994 -31  469.99999999999994 -31  C 470 -32.10456949966159  469.1045694996616 -33  468 -33  C 468 -33  36 -33  36 -33  C 34.89543050033841 -33  34 -32.10456949966159  34 -31  C 34 -31  34 -7.081304948181412  34 -7.081304948181412  Z " fill-rule="nonzero" fill="#f2f2f2" stroke="none" />
    </g>
  </defs>
  <g transform="matrix(1 0 0 1 -31 35 )">
    <use xlink:href="#widget329" filter="url(#filter328)" />
    <use xlink:href="#widget329" />
  </g>
</svg>