<?xml version="1.0" encoding="utf-8"?>
<svg version="1.1" xmlns:xlink="http://www.w3.org/1999/xlink" width="571px" height="50px" xmlns="http://www.w3.org/2000/svg">
  <defs>
    <filter x="20px" y="-30px" width="571px" height="50px" filterUnits="userSpaceOnUse" id="filter330">
      <feOffset dx="2" dy="3" in="SourceAlpha" result="shadowOffsetInner" />
      <feGaussianBlur stdDeviation="2" in="shadowOffsetInner" result="shadowGaussian" />
      <feComposite in2="shadowGaussian" operator="atop" in="SourceAlpha" result="shadowComposite" />
      <feColorMatrix type="matrix" values="0 0 0 0 0.8431372549019608  0 0 0 0 0.8431372549019608  0 0 0 0 0.8431372549019608  0 0 0 0.2980392156862745 0  " in="shadowComposite" />
    </filter>
    <g id="widget331">
      <path d="M 22.5 -2.081304948181426  C 22.5 -2.081304948181426  22.5 -26  22.5 -26  C 22.5 -27.380711874576985  23.619288125423015 -28.5  25 -28.5  C 25 -28.5  582 -28.5  582 -28.5  C 583.380711874577 -28.5  584.5 -27.380711874576985  584.5 -26  C 584.5 -26  584.5 -2.0813049481814225  584.5 -2.0813049481814225  C 584.5 -0.7005930736044341  583.380711874577 0.41869505181857747  582 0.4186950518185739  C 582 0.4186950518185739  136.61843343114015 0.41869505181857747  136.61843343114015 0.41869505181857747  C 136.61843343114015 0.41869505181857747  124.33572979818105 11.788116167991951  124.33572979818105 11.788116167991951  C 124.33572979818105 11.788116167991951  117.08855139169692 0.41869505181857747  117.08855139169692 0.41869505181857747  C 117.08855139169692 0.41869505181857747  25 0.41869505181857747  25 0.41869505181857747  C 23.619288125423015 0.41869505181857747  22.5 -0.7005930736044341  22.5 -2.081304948181426  Z " fill-rule="nonzero" fill="#ffffff" stroke="none" />
      <path d="M 22 -2.0813049481814225  C 22 -2.0813049481814225  22 -26  22 -26  C 22 -27.65685424949238  23.34314575050762 -29  25 -29  C 25 -29  582 -29  582 -29  C 583.6568542494924 -29  585 -27.65685424949238  585 -26  C 585 -26  585 -2.0813049481814225  585 -2.0813049481814225  C 585 -0.42445069868904284  583.6568542494924 0.9186950518185775  582 0.9186950518185775  C 582 0.9186950518185775  136.81432456005336 0.9186950518185775  136.81432456005336 0.9186950518185775  C 136.81432456005336 0.9186950518185775  124.23595505617976 12.56179775280907  124.23595505617976 12.56179775280907  C 124.23595505617976 12.56179775280907  116.81432456005338 0.9186950518185775  116.81432456005338 0.9186950518185775  C 116.81432456005338 0.9186950518185775  25 0.9186950518185775  25 0.9186950518185775  C 23.34314575050762 0.9186950518185775  22 -0.42445069868904284  22 -2.0813049481814225  Z M 23 -2.081304948181419  C 23 -0.9767354485198361  23.895430500338414 -0.08130494818142608  25 -0.08130494818142608  C 25 -0.08130494818142608  117.36277822334033 -0.08130494818142608  117.36277822334033 -0.08130494818142608  C 117.36277822334033 -0.08130494818142608  124.43550454018234 11.014434583174825  124.43550454018234 11.014434583174825  C 124.43550454018234 11.014434583174825  136.42254230222693 -0.08130494818142608  136.42254230222693 -0.08130494818142608  C 136.42254230222693 -0.08130494818142608  581.9999999999999 -0.08130494818141898  581.9999999999999 -0.08130494818141898  C 583.1045694996616 -0.08130494818142608  584 -0.9767354485198361  584 -2.0813049481814225  C 584 -2.0813049481814225  584 -26  584 -26  C 584 -27.104569499661586  583.1045694996616 -28  582 -28  C 582 -28  25 -28  25 -28  C 23.895430500338414 -28  23 -27.104569499661586  23 -26  C 23 -26  23 -2.081304948181419  23 -2.081304948181419  Z " fill-rule="nonzero" fill="#f2f2f2" stroke="none" />
    </g>
  </defs>
  <g transform="matrix(1 0 0 1 -20 30 )">
    <use xlink:href="#widget331" filter="url(#filter330)" />
    <use xlink:href="#widget331" />
  </g>
</svg>