<?xml version="1.0" encoding="utf-8"?>
<svg version="1.1" xmlns:xlink="http://www.w3.org/1999/xlink" width="112px" height="32px" xmlns="http://www.w3.org/2000/svg">
  <g transform="matrix(1 0 0 1 -320 -337 )">
    <path d="M 2.5 0  C 2.5 0  109.5 0  109.5 0  C 110.19035600000001 0  110.81535600000001 0.279822031  111.26776699999999 0.73223305  C 111.72017800000003 1.18464406  112 1.80964406  112 2.5  C 112 2.5  112 29.5  112 29.5  C 112 30.1903559  111.72017800000003 30.8153559  111.26776699999999 31.267767  C 110.81535600000001 31.720178  110.19035600000001 32  109.5 32  C 109.5 32  2.5 32  2.5 32  C 1.8096440599999826 32  1.1846440599999823 31.720178  0.7322330499999907 31.267767  C 0.2798220309999806 30.8153559  0 30.1903559  0 29.5  C 0 29.5  0 2.5  0 2.5  C 0 1.80964406  0.2798220309999806 1.18464406  0.7322330499999907 0.73223305  C 1.1846440599999823 0.279822031  1.8096440599999826 0  2.5 0  Z " fill-rule="nonzero" fill="#ffffff" stroke="none" fill-opacity="0.8980392156862745" transform="matrix(1 0 0 1 320 337 )" />
  </g>
</svg>