<?xml version="1.0" encoding="utf-8"?>
<svg version="1.1" xmlns:xlink="http://www.w3.org/1999/xlink" width="12px" height="15px" xmlns="http://www.w3.org/2000/svg">
  <g transform="matrix(1 0 0 1 -498 -345 )">
    <path d="M 10.263588900000002 5.813869950000001  L 6.5 9.577461239999998  L 6.499980929999992 0.5  L 5.499980929999992 0.5  L 5.5 9.577456470000001  L 1.7364120500000126 5.81387091  L 1.0293053400000076 6.520977500000001  L 5.646446620000006 11.1381191  C 5.841708750000009 11.3333813  6.158291239999983 11.3333813  6.353553390000002 11.1381191  L 10.970695499999977 6.52097702  L 10.263588900000002 5.813869950000001  Z M 0 11.000023800000001  L 0 13.000023800000001  C 0 13.552308099999998  0.447715340000002 14.000023800000001  1 14  L 11 14  C 11.552284199999974 14.000023800000001  12 13.552309000000001  12 13.000023800000001  L 12 11.000023800000001  L 11 11.000023800000001  L 11 13  L 1 13  L 1 11.000023800000001  L 0 11.000023800000001  Z " fill-rule="nonzero" fill="#000000" stroke="none" fill-opacity="0.8980392156862745" transform="matrix(1 0 0 1 498 345 )" />
  </g>
</svg>