<?xml version="1.0" encoding="utf-8"?>
<svg version="1.1" xmlns:xlink="http://www.w3.org/1999/xlink" width="12px" height="15px" xmlns="http://www.w3.org/2000/svg">
  <g transform="matrix(1 0 0 1 -18 -345 )">
    <path d="M 10.263588900000002 5.813869950000001  L 6.5 9.577461239999998  L 6.4999809299999995 0.5  L 5.4999809299999995 0.5  L 5.5 9.577456470000001  L 1.7364120499999984 5.81387091  L 1.0293053400000005 6.520977500000001  L 5.646446619999999 11.1381191  C 5.841708749999999 11.3333813  6.1582912400000005 11.3333813  6.353553390000002 11.1381191  L 10.970695499999998 6.52097702  L 10.263588900000002 5.813869950000001  Z M 0 11.000023800000001  L 0 13.000023800000001  C 0 13.552308099999998  0.44771533999999846 14.000023800000001  1 14  L 11 14  C 11.552284200000003 14.000023800000001  12 13.552309000000001  12 13.000023800000001  L 12 11.000023800000001  L 11 11.000023800000001  L 11 13  L 1 13  L 1 11.000023800000001  L 0 11.000023800000001  Z " fill-rule="nonzero" fill="#0034b5" stroke="none" transform="matrix(1 0 0 1 18 345 )" />
  </g>
</svg>