<?xml version="1.0" encoding="utf-8"?>
<svg version="1.1" xmlns:xlink="http://www.w3.org/1999/xlink" width="12px" height="15px" xmlns="http://www.w3.org/2000/svg">
  <g transform="matrix(1 0 0 1 -178 -345 )">
    <path d="M 10.263588900000002 5.813869950000026  L 6.5 9.577461239999991  L 6.499987633901441 3.6911067413006435  L 6.499980929999992 0.5  L 5.499980929999992 0.5  L 5.646446620000006 9.577461239999991  L 1.0293053400000076 5.813869950000026  L 1.0293053400000076 6.520977500000015  L 5.646446620000006 11.138119099999983  C 5.841708750000009 11.333381299999985  6.158291240000011 11.333381299999985  6.353553390000002 11.138119099999983  L 10.970695500000005 6.520977019999975  L 10.263588900000002 5.813869950000026  Z M 0.15189670868971916 11.000023800000008  L 0.03078041841325785 12.594742886690085  L 0 13.000023800000008  C 0 13.194725815560673  0.055643888854035595 13.376431618938739  0.15189670868971916 13.530106204941603  C 0.32867096087943537 13.812339079444484  0.6424174824748548 14.000023800000008  1 14  L 11 14  C 11.552284200000003 14.000023800000008  12 13.55230899999998  12 13.000023800000008  L 12 11.000023800000008  L 11 11.000023800000008  L 11 13.000023800000008  L 2.8000000000000114 13.000023800000008  L 1.0293053400000076 13.000023800000008  L 1 11.000023800000008  L 0.15189670868971916 11.000023800000008  Z " fill-rule="nonzero" fill="#000000" stroke="none" fill-opacity="0.8980392156862745" transform="matrix(1 0 0 1 178 345 )" />
  </g>
</svg>