<?xml version="1.0" encoding="utf-8"?>
<svg version="1.1" xmlns:xlink="http://www.w3.org/1999/xlink" width="496px" height="42px" xmlns="http://www.w3.org/2000/svg">
  <g transform="matrix(1 0 0 1 -172 -2069 )">
    <path d="M 1.5 0  C 1.5 0  494.5 0  494.5 0  C 494.914214 0  495.289214 0.1678932190000069  495.56066 0.43933982799998716  C 495.83210699999995 0.7107864399999926  496 1.0857864399999926  496 1.5  C 496 1.5  496 42  496 42  C 496 42  0 42  0 42  C 0 42  0 1.5  0 1.5  C 0 1.0857864399999926  0.16789321899999976 0.7107864399999926  0.4393398280000014 0.43933982799998716  C 0.7107864399999997 0.1678932190000069  1.0857864399999997 0  1.5 0  Z " fill-rule="nonzero" fill="#ffffff" stroke="none" transform="matrix(1 0 0 1 172 2069 )" />
  </g>
</svg>