<?xml version="1.0" encoding="utf-8"?>
<svg version="1.1" xmlns:xlink="http://www.w3.org/1999/xlink" width="112px" height="32px" xmlns="http://www.w3.org/2000/svg">
  <g transform="matrix(1 0 0 1 -652 -850 )">
    <path d="M 1.5 0  C 1.5 0  110.5 0  110.5 0  C 110.91421400000002 0  111.28921400000002 0.16789321900000687  111.56065999999998 0.43933982799998716  C 111.83210699999995 0.7107864399999926  112 1.0857864399999926  112 1.5  C 112 1.5  112 30.5  112 30.5  C 112 30.91421360000001  111.83210699999995 31.28921360000001  111.56065999999998 31.5606602  C 111.28921400000002 31.83210679999999  110.91421400000002 32  110.5 32  C 110.5 32  1.5 32  1.5 32  C 1.0857864399999926 32  0.7107864399999926 31.83210679999999  0.4393398280000156 31.5606602  C 0.16789321900000687 31.28921360000001  0 30.91421360000001  0 30.5  C 0 30.5  0 1.5  0 1.5  C 0 1.0857864399999926  0.16789321900000687 0.7107864399999926  0.4393398280000156 0.43933982799998716  C 0.7107864399999926 0.16789321900000687  1.0857864399999926 0  1.5 0  Z " fill-rule="nonzero" fill="#ffffff" stroke="none" transform="matrix(1 0 0 1 652 850 )" />
  </g>
</svg>