<svg width="16" height="16" viewBox="0 0 16 16" fill="#2a50d7" xmlns="http://www.w3.org/2000/svg">
<path d="M8.29961 8.2C8.29961 8.5 8.09961 8.7 7.79961 8.7C7.59961 8.7 7.29961 8.5 7.29961 8.2V1C7.29961 0.7 7.49961 0.5 7.79961 0.5C8.09961 0.5 8.29961 0.7 8.29961 1V8.2Z" fill="#2a50d7"></path>
<path d="M12.1996 2.5C12.5996 2.8 12.9996 3.1 13.2996 3.5C14.4996 4.8 15.1996 6.5 15.1996 8.3C15.1996 12.3 11.8996 15.5 7.89961 15.5C3.89961 15.5 0.599609 12.3 0.599609 8.3C0.599609 6.5 1.19961 4.8 2.39961 3.5C2.69961 3.1 3.09961 2.8 3.49961 2.5C3.69961 2.3 3.89961 2.1 4.19961 2C4.39961 1.9 4.79961 2 4.89961 2.2C4.99961 2.4 4.89961 2.7 4.69961 2.9C4.49961 3 4.29961 3.1 3.99961 3.3L3.09961 4.2C2.09961 5.3 1.49961 6.8 1.49961 8.3C1.49961 11.7 4.29961 14.5 7.79961 14.5C11.2996 14.5 14.0996 11.7 14.0996 8.3C14.0996 6.8 13.4996 5.3 12.4996 4.2C12.3663 3.93333 12.1441 3.75556 11.9218 3.57778C11.8107 3.48889 11.6996 3.4 11.5996 3.3C11.4996 3.25 11.3996 3.175 11.2996 3.1C11.1996 3.025 11.0996 2.95 10.9996 2.9C10.6996 2.7 10.6996 2.4 10.7996 2.2C10.9996 1.9 11.2996 1.9 11.4996 2C11.7996 2.1 11.9996 2.3 12.1996 2.5Z" fill="#2a50d7"></path>
</svg>
