<svg width="16" height="16" viewBox="0 0 16 16" fill="#2a50d7" xmlns="http://www.w3.org/2000/svg">
<path d="M6.85355 8.64645C6.65829 8.45118 6.34171 8.45118 6.14645 8.64645C5.95118 8.84171 5.95118 9.15829 6.14645 9.35355L7.29289 10.5L6.14645 11.6464C5.95118 11.8417 5.95118 12.1583 6.14645 12.3536C6.34171 12.5488 6.65829 12.5488 6.85355 12.3536L8 11.2071L9.14645 12.3536C9.34171 12.5488 9.65829 12.5488 9.85355 12.3536C10.0488 12.1583 10.0488 11.8417 9.85355 11.6464L8.70711 10.5L9.85355 9.35355C10.0488 9.15829 10.0488 8.84171 9.85355 8.64645C9.65829 8.45118 9.34171 8.45118 9.14645 8.64645L8 9.79289L6.85355 8.64645Z" fill="#2a50d7"></path>
<path d="M4.45808 1.42722C4.50521 1.18042 4.74355 1 5.02246 1H10.9775C11.2565 1 11.4948 1.18042 11.5419 1.42722L11.8422 3H14.4615C14.7589 3 15 3.22386 15 3.5C15 3.77614 14.7589 4 14.4615 4H12.9714L12.3093 14.5047C12.2917 14.7832 12.0658 15 11.7931 15H4.2069C3.93416 15 3.70829 14.7832 3.69073 14.5047L3.02859 4H1.53846C1.24108 4 1 3.77614 1 3.5C1 3.22386 1.24108 3 1.53846 3H4.15777L4.45808 1.42722ZM5.31968 3H10.6803L10.4947 2.02817H5.50525L5.31968 3ZM4.69184 13.9412H11.3082L11.9311 4.05882H4.06893L4.69184 13.9412Z" fill="#2a50d7"></path>
</svg>
