<svg width="16" height="16" viewBox="0 0 16 16" fill="#2a50d7" xmlns="http://www.w3.org/2000/svg">
<path d="M9.04987 1.56591C9.26015 1.35563 9.60108 1.35563 9.81137 1.56591L12.0959 3.85041C12.3061 4.0607 12.3061 4.40163 12.0959 4.61191L9.81137 6.89641C9.60108 7.10669 9.26015 7.10669 9.04987 6.89641C8.83959 6.68613 8.83959 6.3452 9.04987 6.13491L10.4139 4.77085H5.30769C3.52339 4.77085 2.07692 6.21732 2.07692 8.00162C2.07692 8.91904 2.45931 9.74714 3.07339 10.3352L2.44943 11.2245C1.5603 10.4354 1 9.28394 1 8.00162C1 5.62255 2.92862 3.69393 5.30769 3.69393H10.4164L9.04987 2.32741C8.83959 2.11713 8.83959 1.7762 9.04987 1.56591Z" fill="#2a50d7"></path>
<path d="M7.65752 9.10268C7.44724 8.8924 7.1063 8.8924 6.89602 9.10268L4.61152 11.3872C4.40124 11.5975 4.40124 11.9384 4.61152 12.1487L6.89602 14.4332C7.1063 14.6435 7.44724 14.6435 7.65752 14.4332C7.8678 14.2229 7.8678 13.882 7.65752 13.6717L6.29515 12.3093H10.6923C13.0714 12.3093 15 10.3807 15 8.00162C15 6.95177 14.6244 5.98964 14.0003 5.24225L13.3517 6.16662C13.712 6.6878 13.9231 7.32007 13.9231 8.00162C13.9231 9.78593 12.4766 11.2324 10.6923 11.2324H6.28931L7.65752 9.86418C7.8678 9.6539 7.8678 9.31297 7.65752 9.10268Z" fill="#2a50d7"></path>
</svg>
