<?xml version="1.0" encoding="utf-8"?>
<svg version="1.1" xmlns:xlink="http://www.w3.org/1999/xlink" width="13px" height="13px" xmlns="http://www.w3.org/2000/svg">
  <g transform="matrix(1 0 0 1 -314 -119 )">
    <path d="M 12 10  L 12 13  L 1 13  L 1 10  L 2 10  L 1.9990207499999997 11.99938929999999  L 10.99902080000004 11.99938929999999  L 11 10  L 12 10  Z M 6.210077700000056 0.30481638000000544  C 6.354171999999949 0.1587349700000118  6.578013449999958 0.13906527000000324  6.743565930000046 0.24675257999999187  L 6.754260319999958 0.2533122300000059  L 6.80003234000003 0.2849138699999969  L 6.84253332000003 0.3226864599999999  L 12.025464199999988 5.529333129999998  L 11.331005499999947 6.223791849999998  L 6.999020750000001 1.8663893499999915  L 7 11  L 6 11  L 5.99902075 1.8323893499999997  L 1.6669609099999434 6.257689669999991  L 0.9980207500000232 5.588749510000014  L 6.175698779999948 0.33961887000000957  L 6.184322550000047 0.33029063000000747  L 6.198853419999978 0.31567212999999583  L 6.210077700000056 0.30481638000000544  Z " fill-rule="nonzero" fill="#000000" stroke="none" transform="matrix(1 0 0 1 314 119 )" />
  </g>
</svg>