<?xml version="1.0" encoding="utf-8"?>
<svg version="1.1" xmlns:xlink="http://www.w3.org/1999/xlink" width="123px" height="32px" xmlns="http://www.w3.org/2000/svg">
  <defs>
    <mask fill="white" id="clip342">
      <path d="M 1.6473214285714284 0  C 1.6473214285714284 0  121.35267857142858 0  121.35267857142858 0  C 121.80757430357144 0  122.2194046607143 0.16789321900000687  122.51751053571427 0.43933982799998716  C 122.81561750892853 0.7107864399999926  123 1.0857864399999926  123 1.5  C 123 1.5  123 30.5  123 30.5  C 123 30.91421360000001  122.81561750892853 31.28921360000001  122.51751053571427 31.5606602  C 122.2194046607143 31.83210679999999  121.80757430357144 32  121.35267857142858 32  C 121.35267857142858 32  1.6473214285714284 32  1.6473214285714284 32  C 1.1924261796428488 32  0.7805958224999918 31.83210679999999  0.48248927539287423 31.5606602  C 0.18438273158036467 31.28921360000001  0 30.91421360000001  0 30.5  C 0 30.5  0 1.5  0 1.5  C 0 1.0857864399999926  0.18438273158036467 0.7107864399999926  0.48248927539287423 0.43933982799998716  C 0.7805958224999918 0.16789321900000687  1.1924261796428488 0  1.6473214285714284 0  Z " fill-rule="evenodd" />
    </mask>
  </defs>
  <g transform="matrix(1 0 0 1 -296 -110 )">
    <path d="M 1.6473214285714284 0  C 1.6473214285714284 0  121.35267857142858 0  121.35267857142858 0  C 121.80757430357144 0  122.2194046607143 0.16789321900000687  122.51751053571427 0.43933982799998716  C 122.81561750892853 0.7107864399999926  123 1.0857864399999926  123 1.5  C 123 1.5  123 30.5  123 30.5  C 123 30.91421360000001  122.81561750892853 31.28921360000001  122.51751053571427 31.5606602  C 122.2194046607143 31.83210679999999  121.80757430357144 32  121.35267857142858 32  C 121.35267857142858 32  1.6473214285714284 32  1.6473214285714284 32  C 1.1924261796428488 32  0.7805958224999918 31.83210679999999  0.48248927539287423 31.5606602  C 0.18438273158036467 31.28921360000001  0 30.91421360000001  0 30.5  C 0 30.5  0 1.5  0 1.5  C 0 1.0857864399999926  0.18438273158036467 0.7107864399999926  0.48248927539287423 0.43933982799998716  C 0.7805958224999918 0.16789321900000687  1.1924261796428488 0  1.6473214285714284 0  Z " fill-rule="nonzero" fill="#f2f2f2" stroke="none" transform="matrix(1 0 0 1 296 110 )" />
    <path d="M 1.6473214285714284 0  C 1.6473214285714284 0  121.35267857142858 0  121.35267857142858 0  C 121.80757430357144 0  122.2194046607143 0.16789321900000687  122.51751053571427 0.43933982799998716  C 122.81561750892853 0.7107864399999926  123 1.0857864399999926  123 1.5  C 123 1.5  123 30.5  123 30.5  C 123 30.91421360000001  122.81561750892853 31.28921360000001  122.51751053571427 31.5606602  C 122.2194046607143 31.83210679999999  121.80757430357144 32  121.35267857142858 32  C 121.35267857142858 32  1.6473214285714284 32  1.6473214285714284 32  C 1.1924261796428488 32  0.7805958224999918 31.83210679999999  0.48248927539287423 31.5606602  C 0.18438273158036467 31.28921360000001  0 30.91421360000001  0 30.5  C 0 30.5  0 1.5  0 1.5  C 0 1.0857864399999926  0.18438273158036467 0.7107864399999926  0.48248927539287423 0.43933982799998716  C 0.7805958224999918 0.16789321900000687  1.1924261796428488 0  1.6473214285714284 0  Z " stroke-width="2" stroke="#f2f2f2" fill="none" transform="matrix(1 0 0 1 296 110 )" mask="url(#clip342)" />
  </g>
</svg>