<?xml version="1.0" encoding="utf-8"?>
<svg version="1.1" xmlns:xlink="http://www.w3.org/1999/xlink" width="16px" height="12px" xmlns="http://www.w3.org/2000/svg">
  <g transform="matrix(1 0 0 1 -1693 -381 )">
    <path d="M 2.6604003900000066 1.3570556599999861  L 3.3675071700000103 0.6499488800000108  L 6.267654069999992 3.5504201599999874  C 6.267995120000023 3.550178530000011  6.268336219999981 3.5499369700000045  6.268677369999978 3.549695479999997  L 6.990895640000019 4.272863059999992  L 6.989037180000025 4.2719488799999965  L 9.72653441 7.010132690000006  C 9.72673536000002 7.009789979999994  9.726936200000011 7.009447200000011  9.72713693999998 7.009104360000009  L 10.102037199999984 7.384948879999996  L 13.267002100000013 10.549443800000006  L 12.559895299999994 11.256550599999997  L 11.451214800000002 10.149068599999993  C 10.369018799999992 10.7313154  9.22073124000002 11.024841299999991  8.008911130000001 11.024841299999991  C 5.506982830000027 11.024841299999991  3.2378820199999723 9.749969700000008  1.3170807399999944 7.309215870000003  L 1.2818184600000109 7.264028190000005  L 1.2450259799999799 7.216134650000015  L 0.9936335890000123 6.874198360000008  C 0.6205577399999811 6.352140910000003  0.6208647739999833 5.650595689999989  0.9943974409999896 5.128864990000011  L 1.0858290300000135 5.002108509999999  L 1.169918129999985 4.887520569999992  L 1.316336060000026 4.69455081000001  C 2.059011259999977 3.744123910000013  2.8525273700000184 2.975894110000013  3.6953358399999843 2.392249630000009  L 2.6604003900000066 1.3570556599999861  Z M 5.562393120000024 1.429833379999991  C 6.342918499999996 1.1554208700000004  7.15874814 1.0174659300000144  8.008911130000001 1.0174659300000144  C 10.528666699999974 1.0174659300000144  12.767631999999992 2.260659049999987  14.682695299999978 4.690499740000007  C 14.727150300000005 4.746904430000001  14.776185399999974 4.810886320000009  14.83021789999998 4.88298789000001  L 14.915066799999977 4.997297830000008  L 15.004279199999985 5.119463310000015  C 15.384943399999997 5.6445542099999955  15.385029499999973 6.354820600000011  15.004492700000014 6.880003789999989  L 14.957410400000015 6.944756719999987  L 14.912200900000016 7.00647214  L 14.679824899999971 7.3134751300000005  C 14.177052199999991 7.951773040000006  13.654532599999982 8.508689500000003  13.112659300000018 8.983486  L 12.404825000000017 8.274501100000009  C 12.813910799999974 7.9209971800000005  13.213374699999974 7.513457389999985  13.603453300000012 7.0514375099999995  L 13.894256199999973 6.694700649999987  L 14.194720399999994 6.293259549999988  C 14.303446800000017 6.143204950000012  14.318958099999975 5.947823169999992  14.241910399999995 5.785726299999993  L 14.195676400000025 5.70781556  L 14.108575599999995 5.588540959999989  L 13.897304700000007 5.309500259999993  C 12.160892100000012 3.1063323900000057  10.199865999999986 2.0174659300000144  8.008911130000001 2.0174659300000144  C 7.442910799999993 2.0174659300000144  6.893807250000009 2.087985989999993  6.361166879999985 2.2296947799999884  L 5.562393120000024 1.429833379999991  Z M 5.558922320000022 4.2557153999999855  L 4.41596942000001 3.1118905799999936  C 3.6928841899999725 3.5870649100000094  3.0042235099999743 4.218062440000011  2.3486079499999732 5.007010589999993  L 2.1042984100000126 5.3102742300000045  L 2.0416717800000015 5.3917199500000095  L 1.8074907000000167 5.710998450000005  C 1.7007669700000179 5.860064510000001  1.6854455299999813 6.053166839999989  1.7608094700000265 6.213838420000002  L 1.806045240000003 6.291117630000002  L 1.9685633400000029 6.514537710000013  L 2.1029192600000215 6.690784129999997  C 3.8458372000000054 8.905502399999989  5.838110669999992 10.024841299999991  8.008911130000001 10.024841299999991  C 8.948635439999975 10.024841299999991  9.847716139999989 9.819549300000006  10.707979099999989 9.405536699999999  L 9.743655199999978 8.4415281  C 9.252254989999983 8.793096100000014  8.650289989999976 9  8 9  C 6.343145750000019 9  5 7.656854250000009  5 6  C 5 5.349432339999993  5.207080630000007 4.747230949999988  5.558922320000022 4.2557153999999855  Z M 7.231739919999995 3.0992746800000077  C 7.476941899999986 3.0345044400000063  7.734441479999987 3  8 3  C 9.65685424999998 3  11 4.343145749999991  11 6  C 11 6.265558520000013  10.965495599999997 6.523058100000014  10.900725299999976 6.768260080000005  L 9.995000000000005 5.8629999999999995  L 9.994514260000017 5.850737659999993  C 9.92150799000001 4.86118805000001  9.128493670000012 4.071864510000012  8.137346369999989 4.004642100000012  L 7.231739919999995 3.0992746800000077  Z M 6.280511799999999 4.977944640000004  C 6.102343469999994 5.277047070000009  6 5.626571740000003  6 6  C 6 7.104569499999997  6.895430499999975 8  8 8  C 8.373428260000026 8  8.72295293000002 7.897656530000006  9.022055360000024 7.719488200000001  L 6.280511799999999 4.977944640000004  Z " fill-rule="nonzero" fill="#000000" stroke="none" fill-opacity="0.2980392156862745" transform="matrix(1 0 0 1 1693 381 )" />
  </g>
</svg>