<?xml version="1.0" encoding="utf-8"?>
<svg version="1.1" xmlns:xlink="http://www.w3.org/1999/xlink" width="516px" height="80px" xmlns="http://www.w3.org/2000/svg">
  <defs>
    <filter x="42px" y="-9px" width="516px" height="80px" filterUnits="userSpaceOnUse" id="filter313">
      <feOffset dx="2" dy="3" in="SourceAlpha" result="shadowOffsetInner" />
      <feGaussianBlur stdDeviation="2" in="shadowOffsetInner" result="shadowGaussian" />
      <feComposite in2="shadowGaussian" operator="atop" in="SourceAlpha" result="shadowComposite" />
      <feColorMatrix type="matrix" values="0 0 0 0 0.6666666666666666  0 0 0 0 0.6666666666666666  0 0 0 0 0.6666666666666666  0 0 0 0.2980392156862745 0  " in="shadowComposite" />
    </filter>
    <g id="widget314">
      <path d="M 44.5 44.83648989898974  C 44.5 44.83648989898974  44.5 -5  44.5 -5  C 44.5 -6.380711874576983  45.61928812542302 -7.5  47 -7.5  C 47 -7.5  549 -7.5  549 -7.5  C 550.380711874577 -7.5  551.5 -6.380711874576983  551.5 -5  C 551.5 -5  551.5 44.83648989898974  551.5 44.83648989898974  C 551.5 46.21720177356673  550.380711874577 47.336489898989754  549 47.33648989898974  C 549 47.33648989898974  126.23058229126636 47.336489898989754  126.23058229126636 47.336489898989754  C 126.23058229126636 47.336489898989754  115.06354480196615 63.04755003852827  115.06354480196615 63.04755003852827  C 115.06354480196615 63.04755003852827  106.79042351219456 47.336489898989754  106.79042351219456 47.336489898989754  C 106.79042351219456 47.336489898989754  47 47.336489898989754  47 47.336489898989754  C 45.61928812542302 47.336489898989754  44.5 46.21720177356673  44.5 44.83648989898974  Z " fill-rule="nonzero" fill="#ffffff" stroke="none" />
      <path d="M 44 44.836489898989754  C 44 44.836489898989754  44 -5  44 -5  C 44 -6.65685424949238  45.34314575050762 -8  47 -8  C 47 -8  549 -8  549 -8  C 550.6568542494924 -8  552 -6.65685424949238  552 -5  C 552 -5  552 44.83648989898974  552 44.83648989898974  C 552 46.49334414848213  550.6568542494924 47.83648989898975  549 47.83648989898975  C 549 47.83648989898975  126.48862786174568 47.83648989898975  126.48862786174568 47.83648989898975  C 126.48862786174568 47.83648989898975  115 64  115 64  C 115 64  106.48862786174568 47.83648989898975  106.48862786174568 47.83648989898975  C 106.48862786174568 47.83648989898975  47 47.83648989898975  47 47.83648989898975  C 45.34314575050762 47.83648989898975  44 46.49334414848213  44 44.836489898989754  Z M 45 44.83648989898974  C 45 45.94105939865133  45.89543050033841 46.83648989898975  47 46.83648989898975  C 47 46.83648989898975  107.09221916264343 46.83648989898975  107.09221916264343 46.83648989898975  C 107.09221916264343 46.83648989898975  115.12708960393228 62.09510007705654  115.12708960393228 62.09510007705654  C 115.12708960393228 62.09510007705654  125.97253672078703 46.83648989898975  125.97253672078703 46.83648989898975  C 125.97253672078703 46.83648989898975  549 46.83648989898975  549 46.83648989898975  C 550.1045694996616 46.83648989898975  551 45.94105939865133  551 44.83648989898974  C 551 44.83648989898974  551 -5  551 -5  C 551 -6.1045694996615865  550.1045694996616 -7  549 -7  C 549 -7  47 -7  47 -7  C 45.89543050033841 -7  45 -6.1045694996615865  45 -5  C 45 -5  45 44.83648989898974  45 44.83648989898974  Z " fill-rule="nonzero" fill="#f2f2f2" stroke="none" />
    </g>
  </defs>
  <g transform="matrix(1 0 0 1 -42 9 )">
    <use xlink:href="#widget314" filter="url(#filter313)" />
    <use xlink:href="#widget314" />
  </g>
</svg>