<?xml version="1.0" encoding="utf-8"?>
<svg version="1.1" xmlns:xlink="http://www.w3.org/1999/xlink" width="495px" height="53px" xmlns="http://www.w3.org/2000/svg">
  <defs>
    <filter x="131px" y="113px" width="495px" height="53px" filterUnits="userSpaceOnUse" id="filter315">
      <feOffset dx="2" dy="3" in="SourceAlpha" result="shadowOffsetInner" />
      <feGaussianBlur stdDeviation="2" in="shadowOffsetInner" result="shadowGaussian" />
      <feComposite in2="shadowGaussian" operator="atop" in="SourceAlpha" result="shadowComposite" />
      <feColorMatrix type="matrix" values="0 0 0 0 0.6666666666666666  0 0 0 0 0.6666666666666666  0 0 0 0 0.6666666666666666  0 0 0 0.2980392156862745 0  " in="shadowComposite" />
    </filter>
    <g id="widget316">
      <path d="M 133.5 145.8978061868686  C 133.5 145.8978061868686  133.5 117  133.5 117  C 133.5 115.61928812542301  134.61928812542303 114.5  136 114.5  C 136 114.5  617 114.5  617 114.5  C 618.380711874577 114.5  619.5 115.61928812542301  619.5 117  C 619.5 117  619.5 145.8978061868686  619.5 145.8978061868686  C 619.5 147.27851806144557  618.380711874577 148.3978061868686  617 148.3978061868686  C 617 148.3978061868686  212.30272493672328 148.3978061868686  212.30272493672328 148.3978061868686  C 212.30272493672328 148.3978061868686  201.11605487501998 158.28745509480407  201.11605487501998 158.28745509480407  C 201.11605487501998 158.28745509480407  192.72351453772973 148.3978061868686  192.72351453772973 148.3978061868686  C 192.72351453772973 148.3978061868686  136 148.3978061868686  136 148.3978061868686  C 134.61928812542303 148.3978061868686  133.5 147.27851806144557  133.5 145.8978061868686  Z " fill-rule="nonzero" fill="#ffffff" stroke="none" />
      <path d="M 133 145.8978061868686  C 133 145.8978061868686  133 117  133 117  C 133 115.34314575050762  134.34314575050763 114  136 114  C 136 114  617 114  617 114  C 618.6568542494924 114  620 115.34314575050762  620 117  C 620 117  620 145.8978061868686  620 145.8978061868686  C 620 147.55466043636096  618.6568542494924 148.8978061868686  617 148.8978061868686  C 617 148.8978061868686  212.49205072572863 148.8978061868686  212.49205072572863 148.8978061868686  C 212.49205072572863 148.8978061868686  201.06496062992125 159  201.06496062992125 159  C 201.06496062992125 159  192.49205072572863 148.8978061868686  192.49205072572863 148.8978061868686  C 192.49205072572863 148.8978061868686  136 148.8978061868686  136 148.8978061868686  C 134.34314575050763 148.8978061868686  133 147.55466043636096  133 145.8978061868686  Z M 134 145.8978061868686  C 134 147.00237568653017  134.89543050033842 147.8978061868686  136 147.8978061868686  C 136 147.8978061868686  192.95497834973116 147.8978061868686  192.95497834973116 147.8978061868686  C 192.95497834973116 147.8978061868686  201.1671491201187 157.57491018960815  201.1671491201187 157.57491018960815  C 201.1671491201187 157.57491018960815  212.11339914771798 147.8978061868686  212.11339914771798 147.8978061868686  C 212.11339914771798 147.8978061868686  617 147.8978061868686  617 147.8978061868686  C 618.1045694996616 147.8978061868686  619 147.00237568653017  619 145.8978061868686  C 619 145.8978061868686  619 117  619 117  C 619 115.8954305003384  618.1045694996616 115  617 115  C 617 115  136 115  136 115  C 134.89543050033842 115  134 115.8954305003384  134 117  C 134 117  134 145.8978061868686  134 145.8978061868686  Z " fill-rule="nonzero" fill="#f2f2f2" stroke="none" />
    </g>
  </defs>
  <g transform="matrix(1 0 0 1 -131 -113 )">
    <use xlink:href="#widget316" filter="url(#filter315)" />
    <use xlink:href="#widget316" />
  </g>
</svg>