<?xml version="1.0" encoding="utf-8"?>
<svg version="1.1" xmlns:xlink="http://www.w3.org/1999/xlink" width="16px" height="16px" xmlns="http://www.w3.org/2000/svg">
  <g transform="matrix(1 0 0 1 -943 -201 )">
    <path d="M 951 201  C 955.48 201  959 204.52  959 209  C 959 213.48  955.48 217  951 217  C 946.52 217  943 213.48  943 209  C 943 204.52  946.52 201  951 201  Z " fill-rule="nonzero" fill="#ffffff" stroke="none" />
    <path d="M 951 201.5  C 955.2 201.5  958.5 204.8  958.5 209  C 958.5 213.2  955.2 216.5  951 216.5  C 946.8 216.5  943.5 213.2  943.5 209  C 943.5 204.8  946.8 201.5  951 201.5  Z " stroke-width="1" stroke="#2250d7" fill="none" />
  </g>
</svg>