<?xml version="1.0" encoding="utf-8"?>
<svg version="1.1" xmlns:xlink="http://www.w3.org/1999/xlink" width="260px" height="32px" xmlns="http://www.w3.org/2000/svg">
  <g>
    <path d="M 1 2  A 1 1 0 0 1 1.9999999999999998 1 L 258 1  A 1 1 0 0 1 259 2 L 259 30  A 1 1 0 0 1 258 31 L 2 31  A 1 1 0 0 1 1 30 L 1 2  Z " fill-rule="nonzero" fill="#ffffff" stroke="none" />
    <path d="M 0.5 2.0000000000000004  A 1.5 1.5 0 0 1 1.9999999999999996 0.5 L 258 0.5  A 1.5 1.5 0 0 1 259.5 2 L 259.5 30  A 1.5 1.5 0 0 1 258 31.5 L 2 31.5  A 1.5 1.5 0 0 1 0.5 30 L 0.5 2  Z " stroke-width="1" stroke="#000000" fill="none" stroke-opacity="0.6" />
  </g>
</svg>